<svg xmlns="http://www.w3.org/2000/svg" viewBox="0 0 16 16" width="512" height="512" shape-rendering="crispEdges">
  <title>Textura de Grama - Minecraft</title>
  
  <!-- Cor Base da Grama -->
  <rect width="16" height="16" fill="#4a7127" />

  <!-- Detalhes Claros (Highlights) -->
  <path fill="#55812d" d="M0 0h2v1h-2ZM9 0h1v1h-1ZM1 1h1v1h-1ZM8 1h2v1h-2ZM7 2h2v1h-2ZM15 2h1v1h-1ZM6 3h2v1h-2ZM14 3h2v1h-2ZM4 4h2v1h-2ZM15 4h1v1h-1ZM3 5h2v1h-2ZM2 6h2v1h-2ZM11 6h1v1h-1ZM1 7h2v1h-2ZM10 7h2v1h-2ZM9 8h2v1h-2ZM8 9h2v1h-2ZM12 9h1v1h-1ZM7 10h2v1h-2ZM6 11h2v1h-2ZM15 11h1v1h-1ZM5 12h2v1h-2ZM14 12h2v1h-2ZM0 13h1v1h-1ZM4 13h2v1h-2ZM13 13h2v1h-2ZM0 14h2v1h-2ZM3 14h2v1h-2ZM12 14h2v1h-2ZM1 15h2v1h-2ZM11 15h2v1h-2Z" />

  <!-- Sombras Médias -->
  <path fill="#3d5f1f" d="M4 0h1v1h-1ZM6 0h1v1h-1ZM11 0h1v1h-1ZM13 0h1v1h-1ZM3 1h1v1h-1ZM5 1h1v1h-1ZM12 1h1v1h-1ZM14 1h1v1h-1ZM2 2h1v1h-1ZM4 2h1v1h-1ZM11 2h1v1h-1ZM13 2h1v1h-1ZM0 3h1v1h-1ZM2 3h1v1h-1ZM10 3h1v1h-1ZM12 3h1v1h-1ZM1 4h1v1h-1ZM9 4h1v1h-1ZM11 4h1v1h-1ZM0 5h1v1h-1ZM7 5h1v1h-1ZM9 5h1v1h-1ZM13 5h1v1h-1ZM6 6h1v1h-1ZM8 6h1v1h-1ZM14 6h1v1h-1ZM5 7h1v1h-1ZM7 7h1v1h-1ZM13 7h1v1h-1ZM15 7h1v1h-1ZM0 8h1v1h-1ZM4 8h1v1h-1ZM6 8h1v1h-1ZM14 8h1v1h-1ZM1 9h1v1h-1ZM3 9h1v1h-1ZM5 9h1v1h-1ZM15 9h1v1h-1ZM0 10h1v1h-1ZM2 10h1v1h-1ZM4 10h1v1h-1ZM11 10h1v1h-1ZM13 10h1v1h-1ZM1 11h1v1h-1ZM3 11h1v1h-1ZM10 11h1v1h-1ZM12 11h1v1h-1ZM2 12h1v1h-1ZM9 12h1v1h-1ZM11 12h1v1h-1ZM8 13h1v1h-1ZM10 13h1v1h-1ZM7 14h1v1h-1ZM9 14h1v1h-1ZM6 15h1v1h-1ZM8 15h1v1h-1ZM15 15h1v1h-1Z" />

  <!-- Sombras Mais Escuras -->
  <path fill="#2f4f18" d="M5 0h1v1h-1ZM12 0h1v1h-1ZM4 1h1v1h-1ZM13 1h1v1h-1ZM3 2h1v1h-1ZM12 2h1v1h-1ZM1 3h1v1h-1ZM11 3h1v1h-1ZM0 4h1v1h-1ZM10 4h1v1h-1ZM8 5h1v1h-1ZM7 6h1v1h-1ZM13 6h1v1h-1ZM6 7h1v1h-1ZM14 7h1v1h-1ZM5 8h1v1h-1ZM15 8h1v1h-1ZM0 9h1v1h-1ZM4 9h1v1h-1ZM1 10h1v1h-1ZM3 10h1v1h-1ZM12 10h1v1h-1ZM2 11h1v1h-1ZM11 11h1v1h-1ZM10 12h1v1h-1ZM9 13h1v1h-1ZM8 14h1v1h-1ZM7 15h1v1h-1Z" />
</svg>