<svg xmlns="http://www.w3.org/2000/svg" viewBox="0 0 16 16" width="512" height="512" shape-rendering="crispEdges">
  <title>Textura de Céu - Minecraft</title>
  
  <!-- Cor Base do Céu -->
  <rect width="16" height="16" fill="#78A7FF" />

  <!-- Detalhes do céu (um leve clareamento na base) -->
  <path fill="#8BB3FF" d="M0 12h1v1h-1ZM2 12h1v1h-1ZM4 12h2v1h-2ZM8 12h1v1h-1ZM10 12h2v1h-2ZM14 12h1v1h-1ZM0 14h2v1h-2ZM3 14h2v1h-2ZM6 14h1v1h-1ZM8 14h3v1h-3ZM13 14h2v1h-2Z" />
  <path fill="#9DBFFF" d="M0 13h1v1h-1ZM3 13h1v1h-1ZM6 13h2v1h-2ZM9 13h1v1h-1ZM11 13h2v1h-2ZM15 13h1v1h-1ZM0 15h1v1h-1ZM2 15h2v1h-2ZM5 15h2v1h-2ZM8 15h2v1h-2ZM12 15h2v1h-2ZM15 15h1v1h-1Z" />
  <path fill="#78A7FF" d="M1 12h1v1h-1ZM3 12h1v1h-1ZM6 12h2v1h-2ZM9 12h1v1h-1ZM12 12h2v1h-2ZM15 12h1v1h-1ZM2 14h1v1h-1ZM5 14h1v1h-1ZM7 14h1v1h-1ZM11 14h2v1h-2ZM15 14h1v1h-1ZM1 13h2v1h-2ZM4 13h2v1h-2ZM8 13h1v1h-1ZM10 13h1v1h-1ZM13 13h2v1h-2ZM1 15h1v1h-1ZM4 15h1v1h-1ZM7 15h1v1h-1ZM10 15h2v1h-2ZM14 15h1v1h-1Z" />

  <!-- Nuvem 1 (Superior) -->
  <path fill="#FFFFFF" d="M2 2h5v1h-5ZM1 3h7v1h-7ZM0 4h1v1h-1ZM8 4h1v1h-1Z" />
  <!-- Sombra Nuvem 1 -->
  <path fill="#E0E0E0" d="M1 4h7v1h-7ZM0 5h2v1h-2ZM7 5h2v1h-2Z" />

  <!-- Nuvem 2 (Meio Direita) -->
  <path fill="#FFFFFF" d="M10 7h4v1h-4ZM9 8h6v1h-6ZM8 9h1v1h-1ZM15 9h1v1h-1Z" />
  <!-- Sombra Nuvem 2 -->
  <path fill="#E0E0E0" d="M9 9h6v1h-6ZM8 10h2v1h-2ZM14 10h2v1h-2Z" />

</svg>
