<svg xmlns="http://www.w3.org/2000/svg" viewBox="0 0 16 16" width="512" height="512" shape-rendering="crispEdges">
  <title>Textura de Pedra - Minecraft</title>
  <rect width="16" height="16" fill="#7d7d7d" />
  <!-- Detalhes Claros (Highlights) -->
  <path fill="#969696" d="M2 0h1v1h-1ZM9 0h1v1h-1ZM12 0h1v1h-1ZM15 0h1v1h-1ZM1 1h1v1h-1ZM2 1h1v1h-1ZM11 1h1v1h-1ZM8 2h1v1h-1ZM9 2h1v1h-1ZM1 3h1v1h-1ZM7 3h1v1h-1ZM13 3h1v1h-1ZM5 4h1v1h-1ZM6 4h1v1h-1ZM9 4h1v1h-1ZM10 4h1v1h-1ZM14 4h1v1h-1ZM11 5h1v1h-1ZM14 5h1v1h-1ZM15 5h1v1h-1ZM1 7h1v1h-1ZM5 7h1v1h-1ZM7 7h1v1h-1ZM15 7h1v1h-1ZM1 8h1v1h-1ZM10 8h1v1h-1ZM9 9h1v1h-1ZM12 9h1v1h-1ZM2 10h1v1h-1ZM10 10h1v1h-1ZM13 10h1v1h-1ZM1 11h1v1h-1ZM5 11h1v1h-1ZM7 11h1v1h-1ZM14 11h1v1h-1ZM3 12h1v1h-1ZM7 12h1v1h-1ZM11 12h1v1h-1ZM15 12h1v1h-1ZM8 13h1v1h-1ZM13 13h1v1h-1ZM0 14h1v1h-1ZM2 14h1v1h-1ZM4 14h1v1h-1ZM6 14h1v1h-1ZM3 15h1v1h-1ZM5 15h1v1h-1ZM8 15h1v1h-1Z" />
  <!-- Sombras Médias -->
  <path fill="#5b5b5b" d="M6 0h1v1h-1ZM8 1h1v1h-1ZM14 1h1v1h-1ZM15 1h1v1h-1ZM2 2h1v1h-1ZM3 2h1v1h-1ZM5 2h1v1h-1ZM9 3h1v1h-1ZM3 4h1v1h-1ZM7 4h1v1h-1ZM8 4h1v1h-1ZM5 5h1v1h-1ZM7 5h1v1h-1ZM2 6h1v1h-1ZM5 6h1v1h-1ZM13 6h1v1h-1ZM10 7h1v1h-1ZM13 7h1v1h-1ZM5 8h1v1h-1ZM15 8h1v1h-1ZM3 9h1v1h-1ZM7 9h1v1h-1ZM15 9h1v1h-1ZM9 10h1v1h-1ZM6 11h1v1h-1ZM9 11h1v1h-1ZM4 12h1v1h-1ZM6 12h1v1h-1ZM14 12h1v1h-1ZM3 13h1v1h-1ZM6 13h1v1h-1ZM7 13h1v1h-1ZM7 14h1v1h-1ZM11 14h1v1h-1ZM6 15h1v1h-1ZM9 15h1v1h-1ZM15 15h1v1h-1Z" />
  <!-- Sombras Mais Escuras -->
  <path fill="#3c3c3c" d="M4 1h1v1h-1ZM12 5h1v1h-1ZM13 5h1v1h-1ZM1 6h1v1h-1ZM9 6h1v1h-1ZM11 6h1v1h-1ZM9 8h1v1h-1ZM0 9h1v1h-1ZM10 9h1v1h-1ZM0 11h1v1h-1ZM14 14h1v1h-1ZM0 15h1v1h-1Z" />
</svg>